# xmcd
#
# Track frame offsets:
#   150
#   13972
#   27755
#   40457
#   55017
#   70937
#   85972
#   103282
#   124097
#   138450
#   150842
#   163275
#   172902
#   183615
#   196585
#   214030
#   228660
#   241605
#   257482
#   275610
#   285842
#   297947
#   311147
#   322777
#
# Disc length: 4514 seconds
#
# Revision: 1
# Processed by: cddbd v1.5PL3 Copyright (c) Steve Scherf et al.
# Submitted via: AudioBrowser/FreeDBQuery 0.90.711
#
DISCID=5011a018
DTITLE=The Wurzels - The Finest 'Arvest of The Wurzels
DYEAR=2002
DGENRE=Pop
TTITLE0=The Combine Harvester
TTITLE1=I Am A Cider Drinker
TTITLE2=Morning Glory
TTITLE3=The Blackbird
TTITLE4=Farmer Bill's Cowman
TTITLE5=Drink Up Thy Zider
TTITLE6=Twice Daily
TTITLE7=Chitterling
TTITLE8=All Over Mendip
TTITLE9=The Champion Dung Spreader
TTITLE10=Don't Tell I Tell 'Ee
TTITLE11=You Don't Get Drunk on a Saturday Night
TTITLE12=My Threshing Machine
TTITLE13=Pill Pill
TTITLE14=Down The Nempnett Thrubwell
TTITLE15=I Love to Swim in the Zider Zee
TTITLE16=I Got My Beady Little Eye On You
TTITLE17=Keep Yer 'And on Yer 'Alfpenny
TTITLE18=Market Gardener
TTITLE19=The Back Of My Old Car
TTITLE20=I Wish I was Back on the Farm
TTITLE21=Wurple-diddle-i-do Song
TTITLE22=I'll Never Get a Scrumpy Here
TTITLE23=Rock Around the A38
EXTD=
EXTT0=
EXTT1=
EXTT2=
EXTT3=
EXTT4=
EXTT5=
EXTT6=
EXTT7=
EXTT8=
EXTT9=
EXTT10=
EXTT11=
EXTT12=
EXTT13=
EXTT14=
EXTT15=
EXTT16=
EXTT17=
EXTT18=
EXTT19=
EXTT20=
EXTT21=
EXTT22=
EXTT23=
PLAYORDER=
